<svg fill="none" xmlns="http://www.w3.org/2000/svg" viewBox="0 0 692 55"><path d="M662.609 8.73c-2.582.254-4.906.254-7.487.509-3.356.254-6.713.763-10.327 1.018-5.68.509-11.36 1.527-16.781 2.8-5.938 1.527-11.618 3.563-17.04 6.363-1.032.509-2.065 1.272-3.356 1.527-1.291.509-2.323 1.018-3.614 1.527-1.807.764-3.356 1.273-5.164 1.782-2.065.509-4.13 1.018-6.196 1.272-1.807.255-3.614.255-5.421.255-1.807 0-3.357-.255-5.164-.255a34.222 34.222 0 0 1-6.97-1.527c-2.324-.764-4.647-1.527-6.971-2.545-3.873-1.782-7.745-3.818-11.618-5.854-1.807-1.018-3.356-2.036-5.163-3.309l-6.196-3.818c-1.549-1.018-3.356-1.782-5.164-2.545-1.032-.51-2.323-.764-3.614-1.018-1.291-.255-2.324-.255-3.614-.51-.775 0-1.55 0-2.066.255l-3.098.764c-1.549.509-3.098 1.272-4.647 2.036-3.098 1.527-5.938 3.054-9.036 4.582-3.873 2.036-7.487 3.817-11.618 5.599-2.323 1.018-4.905 1.782-7.229 2.545-3.356 1.018-6.454 1.527-9.81 2.036-3.098.51-6.454.51-9.552.764-3.615 0-7.229-.255-10.844-.764-4.647-.763-9.036-1.527-13.683-2.545-4.13-1.018-8.261-2.29-12.134-3.818-3.872-1.781-7.745-3.563-11.617-5.6-4.389-2.29-8.778-4.58-13.425-6.108-1.808-.763-3.615-1.018-5.68-1.527-2.066-.509-4.389-.509-6.713-.509-2.323 0-4.389.509-6.712 1.018-2.324.51-4.389 1.527-6.454 2.545-4.906 2.546-9.295 5.854-13.683 9.163l-7.746 6.109c-2.065 1.527-4.389 3.309-6.712 4.836-2.324 1.527-4.905 2.8-7.487 4.072-1.291.51-2.324 1.018-3.614 1.273-1.549.509-3.357.763-4.906 1.018h-3.614c-1.291-.255-2.582-.764-3.873-1.273-4.647-2.29-9.036-5.09-13.166-8.145a51.355 51.355 0 0 1-5.68-4.836c-1.291-1.272-2.582-2.29-3.873-3.563-3.356-3.054-6.454-6.617-10.068-9.417-1.55-1.018-3.099-2.036-4.906-3.055-1.032-.509-2.065-.763-3.098-1.018-.258 0-.774-.254-1.032-.254-.775 0-1.55-.255-2.066-.255h-1.291c-.516 0-1.291 0-1.807.255-1.291.254-2.323.509-3.614.763-2.324.764-4.647 1.528-6.971 2.546-1.807.763-3.614 1.527-5.422 2.545-1.29.509-2.581 1.273-3.872 1.782-2.065 1.018-3.873 2.036-5.938 3.054-1.033.509-2.065 1.018-2.84 1.527-1.807 1.018-3.614 2.29-5.163 3.309-1.291.763-2.582 1.527-3.873 2.545-3.356 2.036-6.454 4.327-9.81 6.363-6.971 4.582-14.2 9.163-21.945 12.472-1.807.764-3.356 1.273-5.163 2.036-2.066.764-4.389 1.273-6.713 1.527-1.033 0-1.807.255-2.84.255-1.549 0-2.84 0-4.389-.255-2.065-.254-4.13-.763-5.938-1.527-2.065-1.018-4.13-2.29-5.938-3.563-3.098-2.291-5.679-5.09-8.261-7.89-1.291-1.273-2.582-2.8-3.873-4.073-1.549-1.527-3.356-3.054-4.905-4.581-1.549-1.273-2.84-2.291-4.647-3.055-1.549.51-2.582 0-3.614-.254-1.033-.255-2.066-.51-3.098-.51-.775 0-1.291 0-2.066.255-1.033.255-1.807.51-2.84 1.018-.774.51-1.807 1.018-2.581 1.528-.775.763-1.549 1.527-2.066 2.29-1.291 1.527-2.582 3.055-3.614 4.582-1.033 1.272-2.066 2.29-2.84 3.563-1.033 1.273-2.324 2.8-3.356 4.073-2.324 2.8-4.906 5.09-7.746 7.38-2.065 1.528-4.388 2.8-6.712 4.073-2.324.764-4.389 1.273-6.712 1.782a63.107 63.107 0 0 1-9.811 0c-5.163-.764-10.069-2.291-14.974-4.327-4.389-2.036-8.52-4.073-12.65-6.618-2.066-1.272-4.131-2.545-6.196-4.072-2.066-1.273-4.131-2.8-6.197-4.073-2.065-1.527-4.13-2.8-6.196-4.072-2.065-1.273-4.389-2.545-6.712-3.563-4.389-2.037-9.036-3.31-13.683-3.055-1.033 0-2.324.255-3.356.255-1.291.254-2.324.509-3.357.764-1.032.254-2.065.763-2.84 1.018-1.032.509-2.065 1.018-3.098 1.272-5.421 1.782-9.81 4.327-13.94 7.127-3.615 2.545-7.23 5.345-10.328 8.654-1.549 1.527-2.84 3.054-4.13 4.581-.517.764-1.033 1.527-1.291 2.545 0 .255-.258.764-.258 1.018-.259.764-.259 1.528-.517 2.291-.258 1.018 0 2.036.775 2.8.774.509 1.807.764 2.84.509.774-.255 1.29-.509 2.065-.509 1.033-.255 1.807-.764 2.84-1.273 1.29-.763 1.807-2.545 1.032-3.818-.516-.763-1.032-1.018-1.807-1.272 2.582-2.8 5.422-5.345 8.262-7.89 4.905-3.564 10.069-6.363 15.49-8.909l3.873-1.527c1.549-.254 3.356-.764 4.905-1.018a12.71 12.71 0 0 1 4.389 0c1.032.255 1.807.255 2.84.51 1.549.508 2.84 1.017 4.13 1.526 2.582 1.273 5.164 2.546 7.487 4.073 2.84 1.781 5.422 3.818 8.262 5.854 2.582 1.781 5.421 3.818 8.261 5.6 2.84 1.78 5.68 3.563 8.52 5.09 5.68 3.054 11.618 5.6 17.556 7.38 6.196 1.783 12.908 2.546 19.621 1.528a49.295 49.295 0 0 0 8.778-2.29c2.84-1.273 5.421-2.546 7.745-4.328 2.581-1.781 4.905-4.072 7.229-6.363 1.29-1.272 2.323-2.545 3.356-3.818 1.549-2.036 3.098-3.817 4.647-5.854 1.807-2.29 3.614-4.836 5.938-7.126.258 0 .258-.255.516-.255s.517-.254.775-.254h.258c.516 0 .774.254 1.291.254 1.032.51 2.065 1.018 3.098 1.782 2.84 2.036 5.163 4.581 7.487 7.127 3.098 3.054 6.196 6.363 9.552 9.162 1.549 1.273 3.098 2.291 4.647 3.31 1.807 1.272 3.873 2.035 5.938 2.799 1.807.764 3.873 1.018 5.938 1.527 2.324.255 4.905.51 7.229.255 2.065 0 4.131-.51 5.938-.764 2.323-.509 4.647-1.273 6.97-2.036 4.389-1.527 8.52-3.563 12.393-5.6 5.938-3.054 11.359-6.872 16.781-10.435 2.582-1.782 5.163-3.564 8.003-5.345 3.098-2.036 6.196-3.818 9.294-5.854.258-.255.775-.51 1.033-.51 1.033-.508 2.065-1.017 3.098-1.781 1.549-.763 3.098-1.782 4.905-2.545.258-.255.775-.255 1.033-.51 1.033-.508 2.324-1.017 3.356-1.526 1.807-.764 3.873-1.782 5.68-2.546 1.807-.763 3.873-1.272 5.938-1.781h2.323c.775.254 1.55.509 2.582.763 1.291.764 2.582 1.527 3.873 2.545 3.872 3.31 7.229 6.873 10.843 10.181l6.971 6.11c2.323 1.78 4.647 3.308 6.97 5.09 2.582 1.781 5.164 3.054 7.745 4.581 2.324 1.273 5.164 2.036 7.746 2.545 1.29.255 2.323.255 3.614 0a14.81 14.81 0 0 0 4.647-.763c2.582-.51 5.163-1.273 7.487-2.291 2.84-1.273 5.422-2.545 8.003-4.072 3.615-2.291 6.713-4.836 10.069-7.382 1.807-1.527 3.873-3.054 5.68-4.581 1.549-1.273 3.098-2.29 4.647-3.563 3.356-2.546 6.712-4.582 10.585-6.364a20.733 20.733 0 0 1 5.68-1.527c1.032 0 1.807-.254 2.84-.254.774 0 1.549 0 2.581.254a49.294 49.294 0 0 1 8.778 2.291c2.324 1.018 4.905 2.29 7.229 3.309 1.549.763 2.84 1.527 4.389 2.29 1.291.764 2.84 1.528 4.389 2.291l8.519 3.818c3.098 1.273 6.197 2.036 9.295 2.8 6.712 1.782 13.424 2.8 20.137 3.563 3.356.51 6.971.51 10.327.51s6.712-.51 10.069-1.019c5.937-.763 11.875-2.545 17.555-4.836 3.615-1.527 6.971-3.309 10.585-5.09 4.131-2.036 8.262-4.327 12.651-6.363.774-.255 1.807-.51 2.581-.764h1.549c1.291.255 2.324.51 3.615 1.018 3.872 1.782 7.229 4.327 10.843 6.618 3.614 2.545 7.487 4.581 11.36 6.617 3.872 2.037 8.003 3.564 12.134 5.09 4.647 1.528 9.552 2.292 14.457 2.546 4.389.255 8.778-.254 12.909-1.272 3.614-.764 7.229-2.291 10.585-3.818 1.549-.764 2.84-1.273 4.389-2.037 1.032-.509 1.807-1.018 2.84-1.527 1.29-.763 2.839-1.272 4.13-2.036 6.971-2.8 14.2-4.327 21.687-5.345 3.872-.509 8.003-.763 12.134-1.273 3.356-.254 6.97-.508 10.327-.763 6.97-.51 14.199-1.018 21.17-.764 2.84 0 4.905-2.29 4.905-4.836 0-2.545-2.324-4.836-4.905-4.836-5.422 0-10.843.51-16.007.764-2.84.764-5.422 1.018-8.003 1.273Zm-130.893 4.836h.516-.516Z" fill="#000"/></svg>